Coordinates
version=1
nRows=49
nColumns=12
inDegrees=yes

Units are S.I. units (second, meters, Newtons, ...)
Angles are in degrees

endheader
time	SC_y	SC_z	SC_x	AC_y	AC_z	AC_x	GH_y	GH_z	GH_yy	EL_x	PS_y
       0.0              -42.99          1.327           56.4          69.55         -12.37         -5.854         -134.1          6.161          114.2          90.34          29.19
   0.04829              -42.99          1.327           56.4          69.55         -12.36         -5.852         -134.1          6.165          114.2          90.33           29.2
   0.09657               -43.0          1.326          56.39          69.54         -12.36          -5.85         -134.1          6.169          114.1          90.32          29.21
    0.1449               -43.0          1.326          56.39          69.54         -12.36         -5.848         -134.0          6.173          114.1           90.3          29.22
    0.1931               -43.0          1.325          56.38          69.54         -12.35         -5.845         -134.0          6.178          114.1          90.29          29.23
    0.2414               -43.0          1.324          56.37          69.54         -12.35         -5.843         -133.9          6.183          114.1          90.27          29.24
    0.2897              -43.01          1.323          56.37          69.54         -12.35          -5.84         -133.9          6.188          114.1          90.25          29.25
     0.338              -43.01          1.323          56.36          69.54         -12.34         -5.837         -133.8          6.194          114.1          90.24          29.26
    0.3863              -43.01          1.322          56.35          69.54         -12.34         -5.834         -133.8            6.2          114.0          90.22          29.28
    0.4346              -43.02          1.321          56.34          69.54         -12.33         -5.831         -133.7          6.206          114.0           90.2          29.29
    0.4829              -43.02           1.32          56.33          69.54         -12.33         -5.827         -133.6          6.213          114.0          90.17          29.31
    0.5312              -43.03          1.319          56.32          69.53         -12.32         -5.823         -133.6          6.221          114.0          90.15          29.32
    0.5794              -43.03          1.318          56.31          69.53         -12.31         -5.819         -133.5          6.229          113.9          90.12          29.34
    0.6277              -43.04          1.316           56.3          69.53         -12.31         -5.815         -133.4          6.238          113.9           90.1          29.36
     0.676              -43.04          1.315          56.29          69.53          -12.3          -5.81         -133.3          6.247          113.9          90.07          29.38
    0.7243              -43.05          1.314          56.27          69.53         -12.29         -5.804         -133.2          6.258          113.8          90.03          29.41
    0.7726              -43.05          1.312          56.26          69.53         -12.28         -5.799         -133.1          6.269          113.8           90.0          29.43
    0.8209              -43.06           1.31          56.24          69.52         -12.27         -5.792         -133.0          6.281          113.8          89.96          29.46
    0.8692              -43.07          1.308          56.22          69.52         -12.26         -5.786         -132.9          6.294          113.7          89.91          29.49
    0.9175              -43.08          1.306           56.2          69.52         -12.25         -5.778         -132.8          6.309          113.7          89.87          29.52
    0.9657              -43.09          1.304          56.18          69.51         -12.24          -5.77         -132.6          6.325          113.6          89.82          29.56
     1.014               -43.1          1.301          56.16          69.51         -12.23         -5.761         -132.4          6.343          113.6          89.76           29.6
     1.062              -43.11          1.299          56.13          69.51         -12.21         -5.751         -132.3          6.362          113.5           89.7          29.64
     1.111              -43.12          1.296           56.1           69.5         -12.19          -5.74         -132.1          6.384          113.4          89.63          29.69
     1.159              -43.14          1.292          56.07           69.5         -12.17         -5.728         -131.8          6.408          113.3          89.55          29.75
     1.207              -43.15          1.288          56.03          69.49         -12.15         -5.714         -131.6          6.434          113.2          89.47          29.81
     1.255              -43.17          1.284          55.99          69.49         -12.13         -5.699         -131.3          6.464          113.1          89.37          29.87
     1.304              -43.19          1.279          55.94          69.48          -12.1         -5.681         -131.0          6.498          113.0          89.26          29.95
     1.352              -43.21          1.274          55.89          69.48         -12.07         -5.662         -130.6          6.536          112.9          89.14          30.04
       1.4              -43.24          1.268          55.83          69.47         -12.04          -5.64         -130.2          6.579          112.8           89.0          30.13
     1.449              -43.27          1.261          55.77          69.46          -12.0         -5.614         -129.8          6.629          112.6          88.85          30.24
     1.497               -43.3          1.253          55.69          69.45         -11.96         -5.585         -129.2          6.685          112.4          88.66          30.37
     1.545              -43.34          1.243           55.6          69.43         -11.91         -5.552         -128.6          6.751          112.2          88.45          30.52
     1.593              -43.38          1.232           55.5          69.42         -11.85         -5.513         -127.9          6.827          111.9          88.21          30.69
     1.642              -43.43           1.22          55.38           69.4         -11.78         -5.467         -127.1          6.916          111.6          87.93          30.89
      1.69              -43.49          1.205          55.23          69.38          -11.7         -5.414         -126.1          7.021          111.3          87.59          31.13
     1.738              -43.57          1.187          55.07          69.36          -11.6          -5.35         -125.0          7.145          110.8          87.19          31.41
     1.787              -43.66          1.166          54.86          69.33         -11.49         -5.273         -123.6          7.294          110.3          86.72          31.75
     1.835              -43.76           1.14          54.62           69.3         -11.34         -5.181         -121.9          7.475          109.7          86.14          32.15
     1.883              -43.89          1.109          54.32          69.26         -11.17         -5.068         -119.8          7.696          109.0          85.43          32.65
     1.931              -44.05           1.07          53.95          69.21         -10.96         -4.928         -117.3          7.968          108.1          84.56          33.27
      1.98              -44.25          1.021          53.49          69.14          -10.7         -4.754         -114.2          8.308          106.9          83.47          34.03
     2.028               -44.5         0.9604           52.9          69.06         -10.36         -4.535         -110.2          8.736          105.5          82.11           35.0
     2.076              -44.82         0.8828          52.16          68.96         -9.942         -4.257         -105.1           9.28          103.6          80.37          36.23
     2.125              -45.23         0.7836          51.22          68.83         -9.401           -3.9         -98.63          9.976          101.3          78.14           37.8
     2.173              -45.75         0.6563           50.0          68.66         -8.706         -3.443         -90.32          10.87          98.29          75.28          39.81
     2.221              -46.42         0.4937          48.45          68.44         -7.819         -2.858          -79.7          12.01          94.44          71.63          42.39
      2.27              -47.26         0.2892           46.5          68.17         -6.703         -2.124         -66.34          13.45           89.6          67.04          45.63
     2.318              -48.28        0.03995          44.13          67.84         -5.343         -1.228         -50.07          15.19          83.71          61.45          49.57
